<svg width="100" height="100" viewBox="0 0 100 100" fill="none" xmlns="http://www.w3.org/2000/svg">
<g clip-path="url(#clip0_1_2)">
<path d="M97 84.0127L3.61999 84.0127L3.61999 42.9777C3.61999 33.7944 5.74666 27.1727 10 23.1127C14.2533 18.956 20.2467 16.8777 27.98 16.8777C33.2 16.8777 37.55 17.9894 41.03 20.2127C44.51 22.3394 47.0717 25.2877 48.715 29.0577C49.7783 24.2244 52.05 20.3577 55.53 17.4577C59.01 14.5577 64.0367 13.1077 70.61 13.1077C79.6967 13.1077 86.3667 15.3794 90.62 19.9227C94.8733 24.466 97 31.2327 97 40.2227L97 84.0127ZM45.67 76.0377L45.67 42.2527C45.67 35.6794 44.075 31.0877 40.885 28.4777C37.5983 25.771 33.4417 24.4177 28.415 24.4177C22.4217 24.4177 17.8783 25.8194 14.785 28.6227C11.595 31.3294 10 36.6944 10 44.7177L10 76.0377L45.67 76.0377ZM90.765 76.0377L90.765 40.9477C90.765 34.0844 89.2183 29.0577 86.125 25.8677C82.935 22.581 77.6667 20.9377 70.32 20.9377C64.3267 20.9377 59.7833 22.5327 56.69 25.7227C53.5 28.816 51.905 34.616 51.905 43.1227L51.905 76.0377L90.765 76.0377Z" fill="white"/>
<path d="M48.5 93L34.2106 81L62.7894 81L48.5 93Z" fill="white"/>
<rect x="20" y="41" width="15" height="3" fill="white"/>
<rect x="63" y="41" width="15" height="3" fill="white"/>
</g>
<defs>
<clipPath id="clip0_1_2">
<rect width="100" height="100" fill="white"/>
</clipPath>
</defs>
</svg>
